<svg xmlns="http://www.w3.org/2000/svg" width="140" height="140" viewBox="0 0 140 140">
  <g id="illustration_-_Empty_State" data-name="illustration - Empty State" transform="translate(-789 -310.432)">
    <g id="BG" transform="translate(789 310.432)" fill="#757575" stroke="#707070" stroke-width="1.5" opacity="0.08">
      <circle cx="70" cy="70" r="70" stroke="none"/>
      <circle cx="70" cy="70" r="69.25" fill="none"/>
    </g>
    <g id="Group_11148" data-name="Group 11148" transform="translate(818.239 345.963)">
      <path id="Path_8058" data-name="Path 8058" d="M6.823,10.14C9.224,7.219,9.193,0,9.193,0H57.539s1.242,7.844-3.011,11.681a14.526,14.526,0,0,1-9.362,3.667L3.726,15,0,12.074S4.422,13.06,6.823,10.14Z" transform="translate(57.708 16.119) rotate(180)" fill="#fff"/>
      <path id="Path_8058_-_Outline" data-name="Path 8058 - Outline" d="M45.264,16.1h-.112L3.464,15.746-.463,12.664l.626-1.322a8.011,8.011,0,0,0,1.571.142,5.7,5.7,0,0,0,4.51-1.821c2.2-2.676,2.2-9.591,2.2-9.66l0-.753H58.18l.1.633a20.452,20.452,0,0,1,.1,4.587A15.36,15.36,0,0,1,57.494,8.5a9.441,9.441,0,0,1-2.464,3.736A15.272,15.272,0,0,1,45.264,16.1ZM3.988,14.251l41.2.348h.073a12.838,12.838,0,0,0,3.241-.486,13.474,13.474,0,0,0,5.521-2.99C57.26,8.207,57.047,2.626,56.872.75H9.929C9.865,2.733,9.5,8.071,7.4,10.616a6.885,6.885,0,0,1-5.052,2.35Z" transform="translate(57.708 16.119) rotate(180)" fill="#395393"/>
      <g id="Rectangle_1030" data-name="Rectangle 1030" transform="translate(13.474)" fill="#fff" stroke="#395393" stroke-linecap="round" stroke-linejoin="round" stroke-width="1.5">
        <path d="M0,0H42A11,11,0,0,1,53,11V68a0,0,0,0,1,0,0H11A11,11,0,0,1,0,57V0A0,0,0,0,1,0,0Z" stroke="none"/>
        <path d="M.75.75H42A10.25,10.25,0,0,1,52.25,11V67.25a0,0,0,0,1,0,0H11A10.25,10.25,0,0,1,.75,57V.75A0,0,0,0,1,.75.75Z" fill="none"/>
      </g>
      <path id="Path_8060" data-name="Path 8060" d="M0,0H37A11,11,0,0,1,48,11V64H11A11,11,0,0,1,0,53Z" transform="translate(17.474 4)" fill="#8897be"/>
      <path id="Path_8059" data-name="Path 8059" d="M11.884,8.458C14.42,6.022,14.386,0,14.386,0H65.45s1.312,6.543-3.181,9.744A18.1,18.1,0,0,1,52.381,12.8l-37.994-.275a18.911,18.911,0,0,1-4.243-.2,7.353,7.353,0,0,1-2.911-1.284S9.348,10.894,11.884,8.458Z" transform="translate(12.092 55.485)" fill="#fff"/>
      <path id="Path_8059_-_Outline" data-name="Path 8059 - Outline" d="M52.484,13.553h-.115l-37.961-.274c-.132.009-.671.04-1.387.04a15.336,15.336,0,0,1-3.03-.253,8.1,8.1,0,0,1-3.232-1.437L5.254,10.4l1.92-.105a7.933,7.933,0,0,0,4.19-2.382C13.254,6.1,13.645,1.59,13.636,0l0-.754H66.064l.121.6a13.8,13.8,0,0,1,.1,3.9,9.05,9.05,0,0,1-3.585,6.6A18.759,18.759,0,0,1,52.484,13.553ZM14.363,11.778h.029l38.009.275h.084a17.494,17.494,0,0,0,9.35-2.921,7.485,7.485,0,0,0,2.96-5.505A12.931,12.931,0,0,0,64.8.75H15.117C15.034,2.514,14.6,6.884,12.4,9A11.412,11.412,0,0,1,9.145,11.25,6.926,6.926,0,0,0,10.3,11.6a14.081,14.081,0,0,0,2.726.222c.754,0,1.307-.038,1.313-.038Z" transform="translate(12.092 55.485)" fill="#395393"/>
      <circle id="Ellipse_85" data-name="Ellipse 85" cx="2.775" cy="2.775" r="2.775" transform="translate(26.206 19.268)" fill="#fff"/>
      <circle id="Ellipse_86" data-name="Ellipse 86" cx="2.775" cy="2.775" r="2.775" transform="translate(50.253 19.268)" fill="#fff"/>
      <path id="Path_8052_-_Outline" data-name="Path 8052 - Outline" d="M1.9-.7H1.824s-.375-.013-.8-.013S.058-.7.053-.7A2,2,0,0,1-2-2.643,2,2,0,0,1-.053-4.7c.023,0,.579-.015,1.074-.015s.931.015.948.016A2,2,0,0,1,3.9-2.624,2,2,0,0,1,1.9-.7Z" transform="translate(41.81 38.258)" fill="#fff"/>
    </g>
    <g id="Group_11149" data-name="Group 11149" transform="translate(876.992 331.52)">
      <path id="Path_8053" data-name="Path 8053" d="M948.852,379.943a.75.75,0,0,1-.75-.75v-9.936a.75.75,0,0,1,1.5,0v9.936A.75.75,0,0,1,948.852,379.943Z" transform="translate(-948.852 -369.257)" fill="#395393"/>
      <path id="Path_8054" data-name="Path 8054" d="M0,10.686a.75.75,0,0,1-.75-.75V0A.75.75,0,0,1,0-.75.75.75,0,0,1,.75,0V9.936A.75.75,0,0,1,0,10.686Z" transform="translate(23.466 19.767) rotate(90)" fill="#395393"/>
      <path id="Path_8055" data-name="Path 8055" d="M0,10.686a.75.75,0,0,1-.75-.75V0A.75.75,0,0,1,0-.75.75.75,0,0,1,.75,0V9.936A.75.75,0,0,1,0,10.686Z" transform="translate(17.043 4.968) rotate(45)" fill="#395393"/>
    </g>
  </g>
</svg>
